<mxfile host="app.diagrams.net" modified="2023-10-20T16:18:52.094Z" agent="Mozilla/5.0 (Macintosh; Intel Mac OS X 10_15_7) AppleWebKit/537.36 (KHTML, like Gecko) Chrome/118.0.0.0 Safari/537.36" etag="5e7nrwleS7uQPDINveXe" version="22.0.6" type="device">
  <diagram name="Seite-1" id="6vBmkLJSiXunlAQst02K">
    <mxGraphModel dx="1194" dy="706" grid="1" gridSize="10" guides="1" tooltips="1" connect="1" arrows="1" fold="1" page="1" pageScale="1" pageWidth="827" pageHeight="1169" math="0" shadow="0">
      <root>
        <mxCell id="0" />
        <mxCell id="1" parent="0" />
        <mxCell id="a2z4Am47G8zJPYm0vg-F-1" value="Trainer" style="rounded=0;whiteSpace=wrap;html=1;" vertex="1" parent="1">
          <mxGeometry x="414" y="260" width="120" height="60" as="geometry" />
        </mxCell>
        <mxCell id="a2z4Am47G8zJPYm0vg-F-2" value="Train and Test-Dataloader" style="rounded=0;whiteSpace=wrap;html=1;" vertex="1" parent="1">
          <mxGeometry x="275" y="408" width="120" height="60" as="geometry" />
        </mxCell>
        <mxCell id="a2z4Am47G8zJPYm0vg-F-3" value="&amp;lt;&amp;lt;abstract&amp;gt;&amp;gt;&lt;br style=&quot;border-color: var(--border-color);&quot;&gt;Optimizer" style="rounded=0;whiteSpace=wrap;html=1;" vertex="1" parent="1">
          <mxGeometry x="414" y="410" width="120" height="60" as="geometry" />
        </mxCell>
        <mxCell id="a2z4Am47G8zJPYm0vg-F-4" value="&amp;lt;&amp;lt;abstract&amp;gt;&amp;gt;&lt;br&gt;Model" style="rounded=0;whiteSpace=wrap;html=1;" vertex="1" parent="1">
          <mxGeometry x="550" y="410" width="120" height="60" as="geometry" />
        </mxCell>
        <mxCell id="a2z4Am47G8zJPYm0vg-F-6" value="Stochastic Gradient Descent" style="rounded=0;whiteSpace=wrap;html=1;" vertex="1" parent="1">
          <mxGeometry x="310" y="515" width="120" height="60" as="geometry" />
        </mxCell>
        <mxCell id="a2z4Am47G8zJPYm0vg-F-7" value="SGD with Momentum" style="rounded=0;whiteSpace=wrap;html=1;" vertex="1" parent="1">
          <mxGeometry x="450" y="515" width="120" height="60" as="geometry" />
        </mxCell>
        <mxCell id="a2z4Am47G8zJPYm0vg-F-8" value="&amp;lt;&amp;lt;abstract&amp;gt;&amp;gt;&lt;br style=&quot;border-color: var(--border-color);&quot;&gt;Dataset" style="rounded=0;whiteSpace=wrap;html=1;" vertex="1" parent="1">
          <mxGeometry x="160" y="515" width="120" height="60" as="geometry" />
        </mxCell>
        <mxCell id="a2z4Am47G8zJPYm0vg-F-9" value="NumpyDataset" style="rounded=0;whiteSpace=wrap;html=1;" vertex="1" parent="1">
          <mxGeometry x="88" y="610" width="120" height="60" as="geometry" />
        </mxCell>
        <mxCell id="a2z4Am47G8zJPYm0vg-F-10" value="CSV Dataset" style="rounded=0;whiteSpace=wrap;html=1;" vertex="1" parent="1">
          <mxGeometry x="232" y="610" width="120" height="60" as="geometry" />
        </mxCell>
        <mxCell id="a2z4Am47G8zJPYm0vg-F-11" value="Sequential" style="rounded=0;whiteSpace=wrap;html=1;" vertex="1" parent="1">
          <mxGeometry x="590" y="515" width="120" height="60" as="geometry" />
        </mxCell>
        <mxCell id="a2z4Am47G8zJPYm0vg-F-12" value="&amp;lt;&amp;lt;abstract&amp;gt;&amp;gt;&lt;br style=&quot;border-color: var(--border-color);&quot;&gt;Layer" style="rounded=0;whiteSpace=wrap;html=1;" vertex="1" parent="1">
          <mxGeometry x="590" y="610" width="120" height="60" as="geometry" />
        </mxCell>
        <mxCell id="a2z4Am47G8zJPYm0vg-F-13" value="Fully Connected" style="rounded=0;whiteSpace=wrap;html=1;" vertex="1" parent="1">
          <mxGeometry x="530" y="710" width="120" height="60" as="geometry" />
        </mxCell>
        <mxCell id="a2z4Am47G8zJPYm0vg-F-14" value="Dropout" style="rounded=0;whiteSpace=wrap;html=1;" vertex="1" parent="1">
          <mxGeometry x="670" y="710" width="120" height="60" as="geometry" />
        </mxCell>
        <mxCell id="a2z4Am47G8zJPYm0vg-F-15" value="" style="endArrow=none;html=1;rounded=0;entryX=0.117;entryY=1.033;entryDx=0;entryDy=0;entryPerimeter=0;exitX=0.692;exitY=-0.067;exitDx=0;exitDy=0;exitPerimeter=0;" edge="1" parent="1" source="a2z4Am47G8zJPYm0vg-F-2" target="a2z4Am47G8zJPYm0vg-F-1">
          <mxGeometry width="50" height="50" relative="1" as="geometry">
            <mxPoint x="390" y="420" as="sourcePoint" />
            <mxPoint x="440" y="370" as="targetPoint" />
          </mxGeometry>
        </mxCell>
        <mxCell id="a2z4Am47G8zJPYm0vg-F-24" value="" style="endArrow=none;html=1;rounded=0;exitX=0.5;exitY=0;exitDx=0;exitDy=0;" edge="1" parent="1" source="a2z4Am47G8zJPYm0vg-F-3">
          <mxGeometry width="50" height="50" relative="1" as="geometry">
            <mxPoint x="425" y="370" as="sourcePoint" />
            <mxPoint x="475" y="320" as="targetPoint" />
          </mxGeometry>
        </mxCell>
        <mxCell id="a2z4Am47G8zJPYm0vg-F-25" value="" style="endArrow=none;html=1;rounded=0;exitX=0.417;exitY=-0.083;exitDx=0;exitDy=0;entryX=0.75;entryY=1;entryDx=0;entryDy=0;exitPerimeter=0;" edge="1" parent="1" source="a2z4Am47G8zJPYm0vg-F-4" target="a2z4Am47G8zJPYm0vg-F-1">
          <mxGeometry width="50" height="50" relative="1" as="geometry">
            <mxPoint x="484" y="420" as="sourcePoint" />
            <mxPoint x="485" y="330" as="targetPoint" />
          </mxGeometry>
        </mxCell>
        <mxCell id="a2z4Am47G8zJPYm0vg-F-26" value="" style="endArrow=none;html=1;rounded=0;exitX=0.5;exitY=0;exitDx=0;exitDy=0;entryX=0.383;entryY=1.017;entryDx=0;entryDy=0;entryPerimeter=0;" edge="1" parent="1" source="a2z4Am47G8zJPYm0vg-F-8" target="a2z4Am47G8zJPYm0vg-F-2">
          <mxGeometry width="50" height="50" relative="1" as="geometry">
            <mxPoint x="494" y="430" as="sourcePoint" />
            <mxPoint x="495" y="340" as="targetPoint" />
          </mxGeometry>
        </mxCell>
        <mxCell id="a2z4Am47G8zJPYm0vg-F-27" value="" style="endArrow=none;html=1;rounded=0;exitX=0.5;exitY=0;exitDx=0;exitDy=0;entryX=0.5;entryY=1;entryDx=0;entryDy=0;" edge="1" parent="1" source="a2z4Am47G8zJPYm0vg-F-12" target="a2z4Am47G8zJPYm0vg-F-11">
          <mxGeometry width="50" height="50" relative="1" as="geometry">
            <mxPoint x="230" y="525" as="sourcePoint" />
            <mxPoint x="331" y="479" as="targetPoint" />
          </mxGeometry>
        </mxCell>
        <mxCell id="a2z4Am47G8zJPYm0vg-F-28" value="" style="endArrow=classic;html=1;rounded=0;exitX=0.5;exitY=0;exitDx=0;exitDy=0;" edge="1" parent="1" source="a2z4Am47G8zJPYm0vg-F-9">
          <mxGeometry width="50" height="50" relative="1" as="geometry">
            <mxPoint x="150" y="625" as="sourcePoint" />
            <mxPoint x="200" y="575" as="targetPoint" />
          </mxGeometry>
        </mxCell>
        <mxCell id="a2z4Am47G8zJPYm0vg-F-29" value="" style="endArrow=classic;html=1;rounded=0;exitX=0.5;exitY=0;exitDx=0;exitDy=0;entryX=0.625;entryY=1.017;entryDx=0;entryDy=0;entryPerimeter=0;" edge="1" parent="1" source="a2z4Am47G8zJPYm0vg-F-10" target="a2z4Am47G8zJPYm0vg-F-8">
          <mxGeometry width="50" height="50" relative="1" as="geometry">
            <mxPoint x="158" y="620" as="sourcePoint" />
            <mxPoint x="210" y="585" as="targetPoint" />
          </mxGeometry>
        </mxCell>
        <mxCell id="a2z4Am47G8zJPYm0vg-F-30" value="" style="endArrow=classic;html=1;rounded=0;exitX=0.5;exitY=0;exitDx=0;exitDy=0;" edge="1" parent="1" source="a2z4Am47G8zJPYm0vg-F-6">
          <mxGeometry width="50" height="50" relative="1" as="geometry">
            <mxPoint x="410" y="505" as="sourcePoint" />
            <mxPoint x="462" y="470" as="targetPoint" />
          </mxGeometry>
        </mxCell>
        <mxCell id="a2z4Am47G8zJPYm0vg-F-31" value="" style="endArrow=classic;html=1;rounded=0;exitX=0.5;exitY=0;exitDx=0;exitDy=0;entryX=0.608;entryY=1.017;entryDx=0;entryDy=0;entryPerimeter=0;" edge="1" parent="1" source="a2z4Am47G8zJPYm0vg-F-7" target="a2z4Am47G8zJPYm0vg-F-3">
          <mxGeometry width="50" height="50" relative="1" as="geometry">
            <mxPoint x="380" y="525" as="sourcePoint" />
            <mxPoint x="472" y="480" as="targetPoint" />
          </mxGeometry>
        </mxCell>
        <mxCell id="a2z4Am47G8zJPYm0vg-F-32" value="" style="endArrow=classic;html=1;rounded=0;exitX=0.425;exitY=0.033;exitDx=0;exitDy=0;entryX=0.608;entryY=1.017;entryDx=0;entryDy=0;entryPerimeter=0;exitPerimeter=0;" edge="1" parent="1" source="a2z4Am47G8zJPYm0vg-F-11">
          <mxGeometry width="50" height="50" relative="1" as="geometry">
            <mxPoint x="633" y="515" as="sourcePoint" />
            <mxPoint x="610" y="471" as="targetPoint" />
          </mxGeometry>
        </mxCell>
        <mxCell id="a2z4Am47G8zJPYm0vg-F-33" value="" style="endArrow=classic;html=1;rounded=0;exitX=0.5;exitY=0;exitDx=0;exitDy=0;entryX=0.5;entryY=1;entryDx=0;entryDy=0;" edge="1" parent="1" source="a2z4Am47G8zJPYm0vg-F-14" target="a2z4Am47G8zJPYm0vg-F-12">
          <mxGeometry width="50" height="50" relative="1" as="geometry">
            <mxPoint x="530" y="535" as="sourcePoint" />
            <mxPoint x="507" y="491" as="targetPoint" />
          </mxGeometry>
        </mxCell>
        <mxCell id="a2z4Am47G8zJPYm0vg-F-34" value="" style="endArrow=classic;html=1;rounded=0;exitX=0.5;exitY=0;exitDx=0;exitDy=0;entryX=0.358;entryY=1.033;entryDx=0;entryDy=0;entryPerimeter=0;" edge="1" parent="1" source="a2z4Am47G8zJPYm0vg-F-13" target="a2z4Am47G8zJPYm0vg-F-12">
          <mxGeometry width="50" height="50" relative="1" as="geometry">
            <mxPoint x="740" y="720" as="sourcePoint" />
            <mxPoint x="660" y="680" as="targetPoint" />
          </mxGeometry>
        </mxCell>
      </root>
    </mxGraphModel>
  </diagram>
</mxfile>
